HIERARCHY
ROOT Hips
{
	OFFSET 0.000000 0.000000 0.000000
	CHANNELS 6 Xposition Yposition Zposition Zrotation Xrotation Yrotation
	JOINT LeftUpLeg
	{
		OFFSET 3.629690 0.000000 0.000000
		CHANNELS 3 Zrotation Xrotation Yrotation
		JOINT LeftLeg
		{
			OFFSET 0.000000 -17.030560 0.000000
			CHANNELS 3 Zrotation Xrotation Yrotation
			JOINT LeftFoot
			{
				OFFSET 0.000000 -15.712090 0.000000
				CHANNELS 3 Zrotation Xrotation Yrotation
				JOINT LeftToeBase
				{
					OFFSET 0.000000 -1.618809 6.041470
					CHANNELS 3 Zrotation Xrotation Yrotation
					End Site
					{
						OFFSET 0.000000 0.000000 2.952750
					}
				}
			}
		}
	}
	JOINT RightUpLeg
	{
		OFFSET -3.629690 0.000000 0.000000
		CHANNELS 3 Zrotation Xrotation Yrotation
		JOINT RightLeg
		{
			OFFSET 0.000000 -17.030560 0.000000
			CHANNELS 3 Zrotation Xrotation Yrotation
			JOINT RightFoot
			{
				OFFSET 0.000000 -15.712090 0.000000
				CHANNELS 3 Zrotation Xrotation Yrotation
				JOINT RightToeBase
				{
					OFFSET 0.000000 -1.618809 6.041470
					CHANNELS 3 Zrotation Xrotation Yrotation
					End Site
					{
						OFFSET 0.000000 0.000000 2.952750
					}
				}
			}
		}
	}
	JOINT Spine
	{
		OFFSET 0.000000 0.039370 0.000000
		CHANNELS 3 Zrotation Xrotation Yrotation
		JOINT Spine1
		{
			OFFSET 0.000000 7.224080 0.000000
			CHANNELS 3 Zrotation Xrotation Yrotation
			JOINT Neck
			{
				OFFSET 0.000000 10.285650 0.000000
				CHANNELS 3 Zrotation Xrotation Yrotation
				JOINT Head
				{
					OFFSET 0.000000 6.808250 0.000000
					CHANNELS 3 Zrotation Xrotation Yrotation
					End Site
					{
						OFFSET 0.000000 4.527550 0.000000
					}
				}
			}
			JOINT LeftShoulder
			{
				OFFSET 0.000000 10.285650 0.000000
				CHANNELS 3 Zrotation Xrotation Yrotation
				JOINT LeftArm
				{
					OFFSET 7.175730 -0.000031 0.000000
					CHANNELS 3 Zrotation Xrotation Yrotation
					JOINT LeftForeArm
					{
						OFFSET 9.778290 -0.000040 0.000000
						CHANNELS 3 Zrotation Xrotation Yrotation
						JOINT LeftHand
						{
							OFFSET 9.419470 -0.000031 0.000000
							CHANNELS 3 Zrotation Xrotation Yrotation
							JOINT LeftHandThumb
							{
								OFFSET 0.000000 0.000000 0.000000
								CHANNELS 3 Zrotation Xrotation Yrotation
								End Site
								{
									OFFSET 0.000000 0.000000 3.937000
								}
							}
							JOINT L_Wrist_End
							{
								OFFSET 3.937000 -0.000010 0.000000
								CHANNELS 3 Zrotation Xrotation Yrotation
								End Site
								{
									OFFSET 0.000000 0.100000 0.000000
								}
							}
						}
					}
				}
			}
			JOINT RightShoulder
			{
				OFFSET 0.000000 10.285650 0.000000
				CHANNELS 3 Zrotation Xrotation Yrotation
				JOINT RightArm
				{
					OFFSET -7.175730 -0.000031 0.000000
					CHANNELS 3 Zrotation Xrotation Yrotation
					JOINT RightForeArm
					{
						OFFSET -9.778290 -0.000040 0.000000
						CHANNELS 3 Zrotation Xrotation Yrotation
						JOINT RightHand
						{
							OFFSET -9.419470 -0.000031 0.000000
							CHANNELS 3 Zrotation Xrotation Yrotation
							JOINT RightHandThumb
							{
								OFFSET 0.000000 0.000000 0.000000
								CHANNELS 3 Zrotation Xrotation Yrotation
								End Site
								{
									OFFSET 0.000000 0.000000 3.937000
								}
							}
							JOINT R_Wrist_End
							{
								OFFSET -5.393690 -0.000019 0.000000
								CHANNELS 3 Zrotation Xrotation Yrotation
								End Site
								{
									OFFSET 0.000000 0.100000 0.000000
								}
							}
						}
					}
				}
			}
		}
	}
}
MOTION
Frames: 14
Frame Time: 0.038462
0.000000 35.000000 0.000000 -3.870970 -7.491852 -66.833105 -2.588070 -1.343406 3.883107 -0.008812 12.363784 0.220281 -8.362079 -5.192650 8.897785 -0.069285 -16.164303 0.166253 -17.501725 -11.455946 -4.970914 0.081677 42.413858 0.130616 11.988157 -3.182674 -5.966026 -0.244627 -12.376554 -0.560130 1.619117 -19.579028 5.601883 -2.947211 25.322112 -3.188328 1.737867 27.261513 6.723356 -15.041512 -33.647687 -1.432468 11.479185 12.581675 -7.033810 -72.422150 3.380022 3.578841 -0.091635 -0.262172 -41.464339 4.878458 1.455824 3.855008 -0.403036 -0.053848 0.195827 -0.511356 -0.087002 -0.394338 -5.581915 6.762256 1.605972 62.010318 17.822971 2.162967 0.397707 0.375215 38.412998 -7.174829 16.669395 -19.959751 0.149287 -0.237922 0.063285 -0.317159 0.174956 0.238060
0.000000 35.000000 0.000000 -3.670941 -7.907536 -66.306585 -2.624767 -1.263525 3.989732 -0.009431 12.662962 0.272685 -8.264227 -5.499276 8.654352 -0.099249 -16.056719 0.075984 -18.491361 -11.104044 -5.034194 0.011090 40.560199 0.164560 11.722667 -3.824244 -6.130625 -0.244181 -12.184746 -0.601276 2.380400 -19.438709 6.306981 -4.092536 24.972270 -3.230559 1.092987 27.417370 7.219211 -14.967939 -33.328822 -2.590343 10.858668 11.822084 -7.098536 -72.529452 -4.486428 2.029857 -0.197189 -0.272787 -45.109078 8.986453 -5.917697 2.460005 -0.423733 -0.056586 0.149390 -0.621994 -0.105337 -0.391646 -5.937031 6.773493 1.750372 64.556958 16.340554 0.589616 0.396981 0.405430 38.316116 -9.073215 13.967193 -18.525008 0.141383 -0.242333 0.021880 -0.399714 0.097059 0.249816
0.000000 35.000000 0.000000 -3.179209 -8.337399 -65.827824 -2.767426 -1.339288 4.160492 0.033113 12.658030 0.285335 -8.301257 -5.839589 7.886026 -0.075043 -15.846652 -0.009247 -19.605480 -10.843192 -5.554027 -0.263617 39.321038 0.395978 11.235990 -4.369686 -6.606470 -0.298038 -11.291415 -0.535920 3.117190 -19.242886 6.894845 -5.068274 24.703101 -3.076836 0.768147 27.280962 7.144133 -15.186257 -33.010565 -3.811191 10.367269 10.748365 -7.633443 -73.181185 -13.833450 -0.064760 -0.205289 -0.188331 -49.363760 13.776086 -14.487896 0.856960 -0.443741 -0.143160 0.120765 -0.582222 -0.034283 -0.365536 -6.147222 6.781624 1.704312 67.574523 14.478696 -0.882096 0.268025 0.276077 38.550266 -11.160697 10.811728 -17.281742 0.104797 -0.143349 0.046449 -0.538106 0.005301 0.198328
0.000000 35.000000 0.000000 -2.810060 -9.744571 -65.009258 -3.502200 -0.788011 4.604695 0.000419 12.796552 0.314248 -8.317896 -6.286813 7.876918 -0.108546 -15.497000 -0.090143 -21.357869 -10.456953 -4.966289 -0.109072 37.317483 0.266187 9.940863 -6.148229 -8.369445 -0.200716 -11.304710 -0.424966 4.446709 -19.378616 7.978496 -6.988934 24.360328 -3.129789 -0.386411 27.986153 7.954448 -15.301499 -33.043937 -5.591201 9.324438 9.549964 -7.677487 -74.925233 -23.509741 -3.540507 -0.345098 -0.210662 -55.135339 21.412385 -24.032329 2.816191 -0.525531 -0.099495 0.054516 -0.728662 -0.134618 -0.247289 -6.570709 6.971902 2.083204 70.643459 13.898859 -2.229925 0.310098 0.428491 35.999315 -12.374945 6.331391 -15.974130 0.150434 -0.183173 -0.093850 -0.634376 -0.098444 0.196881
0.000000 35.000000 0.000000 -2.415163 -11.506217 -64.667093 -4.654448 -0.481391 4.908678 -0.049086 12.730363 0.366520 -8.583194 -6.438041 7.714688 -0.220049 -14.942433 -0.241412 -23.333706 -9.931221 -4.333685 -0.112351 35.357669 0.231486 8.446480 -7.738755 -10.304895 -0.235301 -11.062942 -0.359526 5.910482 -19.539707 9.284455 -9.455703 24.204430 -2.772818 -1.744398 28.275025 9.110567 -15.559950 -33.068690 -7.219857 8.269352 8.108392 -7.613148 -77.609567 -32.641277 -8.613936 -0.314281 -0.172128 -61.745200 31.314474 -31.336552 7.154073 -0.478451 -0.112225 0.093951 -0.784582 -0.153251 -0.196234 -7.115349 7.068193 2.805728 74.126883 13.963426 -3.410317 0.161500 0.371694 33.138524 -12.732014 2.327331 -14.995902 0.088928 -0.133439 -0.078182 -0.677133 -0.205068 0.134820
0.000000 35.000000 0.000000 -1.808296 -13.154204 -63.500517 -5.879518 -0.226033 5.066084 -0.070783 12.261319 0.272072 -8.899380 -6.870690 7.620746 -0.219465 -14.243147 -0.251637 -25.165520 -9.106156 -4.024428 -0.121274 34.236211 0.252588 7.175511 -9.190486 -11.784515 -0.319336 -10.485257 -0.018661 7.179991 -19.557155 10.284064 -11.567768 24.220082 -2.472219 -2.764694 28.338952 9.800811 -16.073808 -33.398698 -8.663626 7.533347 6.640642 -8.141227 -81.648223 -40.632385 -14.882792 -0.159636 -0.056743 -69.037064 41.090172 -35.453631 11.819929 -0.343481 -0.166257 0.021038 -0.706570 -0.232945 -0.117204 -7.432964 6.998380 3.438812 77.400149 13.604275 -4.367212 0.060653 0.267615 30.812697 -12.460958 -1.300617 -14.408744 0.033711 -0.005117 -0.044422 -0.643953 -0.323434 0.057969
0.000000 35.000000 0.000000 -1.213998 -14.666910 -62.688713 -6.997793 0.343064 5.284178 -0.073618 11.240614 0.199779 -9.398515 -7.013499 7.781744 -0.273560 -13.242210 -0.290049 -26.768587 -8.353778 -3.144232 -0.105188 32.996666 0.240867 6.705229 -10.317124 -12.490659 -0.325474 -10.124071 0.156807 7.996066 -19.592525 11.050130 -13.566098 24.022063 -2.298884 -3.702926 28.571186 10.452503 -16.566153 -34.039320 -10.008858 6.896625 4.921659 -8.778966 -85.836616 -45.815599 -21.790519 -0.135876 0.021436 -76.522070 49.229009 -32.524142 15.743618 -0.273524 -0.158195 -0.067045 -0.708525 -0.244063 -0.054304 -7.642313 7.020969 3.870597 79.357630 12.346143 -5.276586 -0.022547 0.224892 27.442692 -10.535060 -4.148492 -14.763090 0.051101 0.043991 -0.009394 -0.607611 -0.430022 -0.002956
0.000000 35.000000 0.000000 -0.906604 -14.737489 -63.065190 -6.710197 0.972247 5.060179 -0.137004 10.329979 0.185343 -10.058546 -6.981183 8.014294 -0.295703 -12.484602 -0.275881 -26.697371 -8.056283 -2.578551 0.002633 32.121410 0.125287 6.807820 -11.370867 -12.350774 -0.420460 -9.080029 0.328553 8.005058 -19.533281 11.155727 -14.093793 23.890716 -2.404095 -3.958118 28.601960 10.433927 -16.985141 -34.637020 -10.338041 6.921531 3.372875 -9.631835 -87.108165 -46.741118 -26.475050 0.091139 -0.028228 -83.567387 51.642396 -23.607256 15.022026 -0.226278 -0.161631 -0.000220 -0.624196 -0.346594 -0.134020 -7.345657 7.018893 4.083717 80.132453 8.440561 -6.402266 -0.162382 0.068229 26.166354 -9.110766 -6.645652 -14.962229 -0.065383 0.128072 0.127084 -0.375098 -0.439936 0.009326
0.000000 35.000000 0.000000 -0.925671 -13.217394 -64.130979 -5.039391 1.768406 5.269123 -0.169590 9.226848 0.229482 -10.731677 -6.841371 8.353574 -0.350821 -11.933105 -0.328257 -25.327132 -8.322075 -2.043945 -0.010144 31.003056 0.063948 8.622490 -11.792912 -10.838832 -0.375383 -8.014105 0.314727 6.795504 -19.491007 10.320774 -13.132515 23.538034 -2.878498 -3.487904 28.490066 9.815826 -17.079587 -34.993881 -10.090329 7.272288 1.955816 -10.686450 -84.393513 -44.094373 -27.616788 0.083689 -0.015344 -88.945281 50.113136 -10.093300 12.090061 -0.216291 -0.125489 0.039884 -0.569253 -0.322760 -0.139293 -6.857417 7.022271 3.597197 78.828267 2.128502 -7.748949 -0.184732 -0.021199 26.608361 -8.478362 -8.247032 -15.949805 -0.069065 0.185848 0.195790 -0.310366 -0.395736 -0.050972
0.000000 35.000000 0.000000 -0.908523 -10.443444 -66.233739 -1.878956 2.170162 5.578006 -0.194822 8.373570 0.249704 -11.435864 -6.525621 8.624417 -0.327882 -11.623009 -0.313455 -22.271376 -9.296496 -1.728395 -0.036860 29.766800 0.041266 10.885616 -11.605875 -8.789705 -0.301218 -7.093662 0.353485 4.951539 -19.494998 8.743037 -10.553267 23.061855 -3.459253 -2.171339 28.098143 8.478481 -16.836040 -35.144578 -9.283452 8.164760 1.079990 -12.020430 -78.061176 -39.717972 -25.350189 0.001102 0.025518 -92.408157 46.787920 6.029173 8.144711 -0.239593 -0.113036 0.069622 -0.501254 -0.318238 -0.131051 -6.212349 7.026060 2.708573 75.823215 -5.167795 -9.398420 -0.078090 -0.029254 29.646881 -9.276534 -8.061306 -17.183982 -0.000301 0.228464 0.126377 -0.355798 -0.316406 -0.093816
0.000000 35.000000 0.000000 -0.834026 -7.037063 -68.747498 2.258132 2.011497 6.324679 -0.206320 8.282307 0.231707 -12.228841 -5.759289 9.136385 -0.211919 -11.566845 -0.257124 -17.986564 -10.276792 -1.049374 -0.056920 28.059671 0.033481 12.820003 -10.393718 -6.803029 -0.121026 -6.802094 0.424449 3.066105 -19.537065 6.879149 -7.204880 22.416130 -3.960073 -0.296650 27.582789 6.661988 -16.134618 -35.145460 -8.271485 9.294674 0.914077 -13.335073 -70.017356 -34.650191 -21.168796 -0.095047 0.122722 -93.234857 43.343423 22.634904 4.493103 -0.235077 -0.120270 0.125873 -0.310550 -0.385793 -0.138039 -5.722300 6.979121 1.521713 71.732598 -12.747148 -11.577219 0.093266 0.031872 35.383463 -11.712321 -6.516476 -18.507015 0.143285 0.270172 -0.047831 -0.459513 -0.197896 -0.092701
0.000000 35.000000 0.000000 -1.548747 -6.370115 -75.791763 8.996476 0.167449 8.413386 -0.208292 18.398243 -0.031851 -13.835403 -4.646679 10.384009 0.689438 -11.653921 -0.289330 -11.606249 -9.406437 -3.910844 0.020879 25.806640 -0.193385 14.231377 -13.426823 -2.249266 0.678336 -5.253576 0.650168 2.307749 -19.852555 5.052675 -0.751088 20.653313 -3.193782 0.518669 26.202468 8.929603 -13.840831 -34.119050 -5.945704 9.052347 2.040732 -15.123588 -59.129662 -23.316859 -17.582091 0.369760 0.292800 -91.327857 35.387293 44.120213 1.998880 0.126079 -0.353901 -0.371890 0.499556 -1.509305 0.481319 -6.234193 8.817756 -1.697005 67.397395 -11.415530 -14.856226 0.928916 0.706296 39.741231 -14.280473 1.029894 -20.465153 0.357111 0.726943 -0.320376 -0.138105 -0.335399 0.180735
0.000000 35.000000 0.000000 -2.141704 -0.416056 -77.182027 9.914343 1.629660 14.514023 -0.115366 15.235946 -0.280927 -13.193951 -4.080280 11.477242 0.760165 -12.785432 0.049362 -7.496847 -10.393968 -0.215279 0.373461 20.803879 0.012420 12.086184 -5.239645 -7.614430 1.261361 -8.171892 0.595930 -0.259312 -19.193224 2.976125 0.951630 20.772524 -4.291848 2.972684 26.262270 4.910992 -13.625956 -35.069687 -5.299305 11.525518 2.325699 -15.507277 -51.184755 -8.214668 -16.202612 -0.583564 0.614747 -74.156606 22.553027 45.505940 11.202682 -0.192045 -0.099953 -0.157256 0.605284 -0.892443 0.563294 -5.067514 7.852521 -3.851968 65.071426 -16.668999 -14.652894 0.475604 0.433254 48.791422 -16.467585 8.958944 -20.446293 0.814995 0.322849 -0.883133 -0.410038 0.608513 0.293115
0.000000 35.000000 0.000000 -1.387310 -1.356689 -81.821541 11.712924 2.496042 14.166620 0.093552 22.265114 -0.297923 -12.993593 -5.329792 14.075566 0.215532 -14.915672 -0.110863 -7.090086 -7.469386 -4.563252 -0.005649 18.445048 0.440189 12.107235 -5.647276 -6.453733 0.831274 -9.863387 0.856691 -2.167296 -20.750649 -0.892595 5.217847 20.383681 -4.778912 4.630941 26.078883 4.602009 -12.881326 -32.773430 -3.208408 12.960455 2.836886 -16.914630 -46.838645 -2.549622 -15.626141 0.341569 0.341238 -68.700356 20.604169 57.120044 15.044800 -0.182936 -0.249515 0.155910 0.312926 -0.949144 0.507744 -5.074977 8.659472 -5.996695 62.122395 -16.062952 -13.491872 0.687600 0.298239 57.186395 -18.674113 11.404060 -20.608727 0.249355 0.457565 -0.436764 -0.047321 -0.244759 0.325553
